<mxfile host="app.diagrams.net" modified="2022-02-13T18:13:55.411Z" agent="5.0 (Macintosh; Intel Mac OS X 10_15_7) AppleWebKit/537.36 (KHTML, like Gecko) Chrome/98.0.4758.87 Safari/537.36" etag="dJ5acec4r8sU92CDhc0p" version="16.5.6" type="github">
  <diagram id="aeiTiWAKEBBw7jZmQLeF" name="Page-1">
    <mxGraphModel dx="996" dy="582" grid="1" gridSize="10" guides="1" tooltips="1" connect="1" arrows="1" fold="1" page="1" pageScale="1" pageWidth="850" pageHeight="1100" math="0" shadow="0">
      <root>
        <mxCell id="0" />
        <mxCell id="1" parent="0" />
        <mxCell id="NDee6fwguRnhBmx3Z9ys-1" value="" style="rounded=1;whiteSpace=wrap;html=1;" vertex="1" parent="1">
          <mxGeometry x="78.5" y="120" width="165" height="610" as="geometry" />
        </mxCell>
        <mxCell id="NDee6fwguRnhBmx3Z9ys-2" value="" style="outlineConnect=0;dashed=0;verticalLabelPosition=bottom;verticalAlign=top;align=center;html=1;shape=mxgraph.aws3.api_gateway;fillColor=#D9A741;gradientColor=none;" vertex="1" parent="1">
          <mxGeometry x="126" y="630" width="70" height="70" as="geometry" />
        </mxCell>
        <mxCell id="NDee6fwguRnhBmx3Z9ys-3" value="/patient/create" style="sketch=0;outlineConnect=0;fontColor=#232F3E;gradientColor=none;fillColor=#B0084D;strokeColor=none;dashed=0;verticalLabelPosition=bottom;verticalAlign=top;align=center;html=1;fontSize=12;fontStyle=0;aspect=fixed;pointerEvents=1;shape=mxgraph.aws4.endpoint;" vertex="1" parent="1">
          <mxGeometry x="126" y="150" width="70" height="70" as="geometry" />
        </mxCell>
        <mxCell id="NDee6fwguRnhBmx3Z9ys-4" value="patient_creation_validator" style="outlineConnect=0;dashed=0;verticalLabelPosition=bottom;verticalAlign=top;align=center;html=1;shape=mxgraph.aws3.lambda_function;fillColor=#F58534;gradientColor=none;" vertex="1" parent="1">
          <mxGeometry x="330" y="149" width="70" height="72" as="geometry" />
        </mxCell>
        <mxCell id="NDee6fwguRnhBmx3Z9ys-5" value="" style="endArrow=classic;html=1;rounded=0;" edge="1" parent="1" source="NDee6fwguRnhBmx3Z9ys-3" target="NDee6fwguRnhBmx3Z9ys-4">
          <mxGeometry width="50" height="50" relative="1" as="geometry">
            <mxPoint x="400" y="330" as="sourcePoint" />
            <mxPoint x="450" y="280" as="targetPoint" />
          </mxGeometry>
        </mxCell>
        <mxCell id="NDee6fwguRnhBmx3Z9ys-6" value="patient_creator" style="outlineConnect=0;dashed=0;verticalLabelPosition=bottom;verticalAlign=top;align=center;html=1;shape=mxgraph.aws3.lambda_function;fillColor=#F58534;gradientColor=none;" vertex="1" parent="1">
          <mxGeometry x="510" y="148" width="70" height="72" as="geometry" />
        </mxCell>
        <mxCell id="NDee6fwguRnhBmx3Z9ys-7" value="" style="endArrow=classic;html=1;rounded=0;exitX=1;exitY=0.5;exitDx=0;exitDy=0;exitPerimeter=0;entryX=0;entryY=0.5;entryDx=0;entryDy=0;entryPerimeter=0;" edge="1" parent="1" source="NDee6fwguRnhBmx3Z9ys-4" target="NDee6fwguRnhBmx3Z9ys-6">
          <mxGeometry width="50" height="50" relative="1" as="geometry">
            <mxPoint x="420" y="310" as="sourcePoint" />
            <mxPoint x="470" y="260" as="targetPoint" />
          </mxGeometry>
        </mxCell>
        <mxCell id="NDee6fwguRnhBmx3Z9ys-8" value="table: patients" style="outlineConnect=0;dashed=0;verticalLabelPosition=bottom;verticalAlign=top;align=center;html=1;shape=mxgraph.aws3.dynamo_db;fillColor=#2E73B8;gradientColor=none;" vertex="1" parent="1">
          <mxGeometry x="690" y="340" width="72" height="81" as="geometry" />
        </mxCell>
        <mxCell id="NDee6fwguRnhBmx3Z9ys-9" value="" style="endArrow=classic;html=1;rounded=0;exitX=1;exitY=0.5;exitDx=0;exitDy=0;exitPerimeter=0;entryX=0.5;entryY=0;entryDx=0;entryDy=0;entryPerimeter=0;" edge="1" parent="1" source="NDee6fwguRnhBmx3Z9ys-6" target="NDee6fwguRnhBmx3Z9ys-8">
          <mxGeometry width="50" height="50" relative="1" as="geometry">
            <mxPoint x="420" y="194" as="sourcePoint" />
            <mxPoint x="520" y="194" as="targetPoint" />
          </mxGeometry>
        </mxCell>
        <mxCell id="NDee6fwguRnhBmx3Z9ys-10" value="/patient/retrieve" style="sketch=0;outlineConnect=0;fontColor=#232F3E;gradientColor=none;fillColor=#B0084D;strokeColor=none;dashed=0;verticalLabelPosition=bottom;verticalAlign=top;align=center;html=1;fontSize=12;fontStyle=0;aspect=fixed;pointerEvents=1;shape=mxgraph.aws4.endpoint;" vertex="1" parent="1">
          <mxGeometry x="126" y="270" width="70" height="70" as="geometry" />
        </mxCell>
        <mxCell id="NDee6fwguRnhBmx3Z9ys-11" value="patient_retrieval_validator" style="outlineConnect=0;dashed=0;verticalLabelPosition=bottom;verticalAlign=top;align=center;html=1;shape=mxgraph.aws3.lambda_function;fillColor=#F58534;gradientColor=none;" vertex="1" parent="1">
          <mxGeometry x="330" y="270" width="70" height="72" as="geometry" />
        </mxCell>
        <mxCell id="NDee6fwguRnhBmx3Z9ys-12" value="patient_retriever" style="outlineConnect=0;dashed=0;verticalLabelPosition=bottom;verticalAlign=top;align=center;html=1;shape=mxgraph.aws3.lambda_function;fillColor=#F58534;gradientColor=none;" vertex="1" parent="1">
          <mxGeometry x="510" y="270" width="70" height="72" as="geometry" />
        </mxCell>
        <mxCell id="NDee6fwguRnhBmx3Z9ys-13" value="" style="endArrow=classic;html=1;rounded=0;entryX=1;entryY=0.5;entryDx=0;entryDy=0;entryPerimeter=0;" edge="1" parent="1" source="NDee6fwguRnhBmx3Z9ys-8" target="NDee6fwguRnhBmx3Z9ys-12">
          <mxGeometry width="50" height="50" relative="1" as="geometry">
            <mxPoint x="690" y="350" as="sourcePoint" />
            <mxPoint x="740" y="300" as="targetPoint" />
          </mxGeometry>
        </mxCell>
        <mxCell id="NDee6fwguRnhBmx3Z9ys-14" value="" style="endArrow=classic;html=1;rounded=0;exitX=0;exitY=0.5;exitDx=0;exitDy=0;exitPerimeter=0;entryX=1;entryY=0.5;entryDx=0;entryDy=0;entryPerimeter=0;" edge="1" parent="1" source="NDee6fwguRnhBmx3Z9ys-12" target="NDee6fwguRnhBmx3Z9ys-11">
          <mxGeometry width="50" height="50" relative="1" as="geometry">
            <mxPoint x="700" y="283.17999999999995" as="sourcePoint" />
            <mxPoint x="590" y="316" as="targetPoint" />
          </mxGeometry>
        </mxCell>
        <mxCell id="NDee6fwguRnhBmx3Z9ys-15" value="" style="endArrow=classic;html=1;rounded=0;exitX=0;exitY=0.5;exitDx=0;exitDy=0;exitPerimeter=0;" edge="1" parent="1" source="NDee6fwguRnhBmx3Z9ys-11" target="NDee6fwguRnhBmx3Z9ys-10">
          <mxGeometry width="50" height="50" relative="1" as="geometry">
            <mxPoint x="520" y="316" as="sourcePoint" />
            <mxPoint x="410" y="316" as="targetPoint" />
          </mxGeometry>
        </mxCell>
        <mxCell id="NDee6fwguRnhBmx3Z9ys-16" value="/patient/update" style="sketch=0;outlineConnect=0;fontColor=#232F3E;gradientColor=none;fillColor=#B0084D;strokeColor=none;dashed=0;verticalLabelPosition=bottom;verticalAlign=top;align=center;html=1;fontSize=12;fontStyle=0;aspect=fixed;pointerEvents=1;shape=mxgraph.aws4.endpoint;" vertex="1" parent="1">
          <mxGeometry x="126" y="380" width="70" height="70" as="geometry" />
        </mxCell>
        <mxCell id="NDee6fwguRnhBmx3Z9ys-17" value="patient_update_validator" style="outlineConnect=0;dashed=0;verticalLabelPosition=bottom;verticalAlign=top;align=center;html=1;shape=mxgraph.aws3.lambda_function;fillColor=#F58534;gradientColor=none;" vertex="1" parent="1">
          <mxGeometry x="330" y="380" width="70" height="72" as="geometry" />
        </mxCell>
        <mxCell id="NDee6fwguRnhBmx3Z9ys-18" value="patient_updater" style="outlineConnect=0;dashed=0;verticalLabelPosition=bottom;verticalAlign=top;align=center;html=1;shape=mxgraph.aws3.lambda_function;fillColor=#F58534;gradientColor=none;" vertex="1" parent="1">
          <mxGeometry x="510" y="380" width="70" height="72" as="geometry" />
        </mxCell>
        <mxCell id="NDee6fwguRnhBmx3Z9ys-19" value="" style="endArrow=classic;html=1;rounded=0;exitX=1;exitY=0.5;exitDx=0;exitDy=0;exitPerimeter=0;entryX=0;entryY=0.78;entryDx=0;entryDy=0;entryPerimeter=0;" edge="1" parent="1" source="NDee6fwguRnhBmx3Z9ys-18" target="NDee6fwguRnhBmx3Z9ys-8">
          <mxGeometry width="50" height="50" relative="1" as="geometry">
            <mxPoint x="640" y="530" as="sourcePoint" />
            <mxPoint x="690" y="480" as="targetPoint" />
          </mxGeometry>
        </mxCell>
        <mxCell id="NDee6fwguRnhBmx3Z9ys-20" value="" style="endArrow=classic;html=1;rounded=0;exitX=1;exitY=0.5;exitDx=0;exitDy=0;exitPerimeter=0;" edge="1" parent="1" source="NDee6fwguRnhBmx3Z9ys-17" target="NDee6fwguRnhBmx3Z9ys-18">
          <mxGeometry width="50" height="50" relative="1" as="geometry">
            <mxPoint x="500" y="522.8199999999999" as="sourcePoint" />
            <mxPoint x="610" y="509.99999999999994" as="targetPoint" />
          </mxGeometry>
        </mxCell>
        <mxCell id="NDee6fwguRnhBmx3Z9ys-21" value="" style="endArrow=classic;html=1;rounded=0;entryX=0;entryY=0.5;entryDx=0;entryDy=0;entryPerimeter=0;" edge="1" parent="1" source="NDee6fwguRnhBmx3Z9ys-16" target="NDee6fwguRnhBmx3Z9ys-17">
          <mxGeometry width="50" height="50" relative="1" as="geometry">
            <mxPoint x="350" y="530" as="sourcePoint" />
            <mxPoint x="460" y="530" as="targetPoint" />
          </mxGeometry>
        </mxCell>
        <mxCell id="NDee6fwguRnhBmx3Z9ys-22" value="/patient/delete" style="sketch=0;outlineConnect=0;fontColor=#232F3E;gradientColor=none;fillColor=#B0084D;strokeColor=none;dashed=0;verticalLabelPosition=bottom;verticalAlign=top;align=center;html=1;fontSize=12;fontStyle=0;aspect=fixed;pointerEvents=1;shape=mxgraph.aws4.endpoint;" vertex="1" parent="1">
          <mxGeometry x="126" y="500" width="70" height="70" as="geometry" />
        </mxCell>
        <mxCell id="NDee6fwguRnhBmx3Z9ys-23" value="patient_update_validator" style="outlineConnect=0;dashed=0;verticalLabelPosition=bottom;verticalAlign=top;align=center;html=1;shape=mxgraph.aws3.lambda_function;fillColor=#F58534;gradientColor=none;" vertex="1" parent="1">
          <mxGeometry x="330" y="498" width="70" height="72" as="geometry" />
        </mxCell>
        <mxCell id="NDee6fwguRnhBmx3Z9ys-24" value="patient_deleter" style="outlineConnect=0;dashed=0;verticalLabelPosition=bottom;verticalAlign=top;align=center;html=1;shape=mxgraph.aws3.lambda_function;fillColor=#F58534;gradientColor=none;" vertex="1" parent="1">
          <mxGeometry x="510" y="498" width="70" height="72" as="geometry" />
        </mxCell>
        <mxCell id="NDee6fwguRnhBmx3Z9ys-25" value="" style="endArrow=classic;html=1;rounded=0;exitX=1;exitY=0.5;exitDx=0;exitDy=0;exitPerimeter=0;entryX=0.5;entryY=1;entryDx=0;entryDy=0;entryPerimeter=0;" edge="1" parent="1" source="NDee6fwguRnhBmx3Z9ys-24" target="NDee6fwguRnhBmx3Z9ys-8">
          <mxGeometry width="50" height="50" relative="1" as="geometry">
            <mxPoint x="620" y="530" as="sourcePoint" />
            <mxPoint x="670" y="480" as="targetPoint" />
          </mxGeometry>
        </mxCell>
        <mxCell id="NDee6fwguRnhBmx3Z9ys-26" value="" style="endArrow=classic;html=1;rounded=0;exitX=1;exitY=0.5;exitDx=0;exitDy=0;exitPerimeter=0;" edge="1" parent="1" source="NDee6fwguRnhBmx3Z9ys-23" target="NDee6fwguRnhBmx3Z9ys-24">
          <mxGeometry width="50" height="50" relative="1" as="geometry">
            <mxPoint x="590" y="544" as="sourcePoint" />
            <mxPoint x="736" y="431" as="targetPoint" />
          </mxGeometry>
        </mxCell>
        <mxCell id="NDee6fwguRnhBmx3Z9ys-27" value="" style="endArrow=classic;html=1;rounded=0;entryX=0;entryY=0.5;entryDx=0;entryDy=0;entryPerimeter=0;" edge="1" parent="1" source="NDee6fwguRnhBmx3Z9ys-22" target="NDee6fwguRnhBmx3Z9ys-23">
          <mxGeometry width="50" height="50" relative="1" as="geometry">
            <mxPoint x="410" y="544" as="sourcePoint" />
            <mxPoint x="520" y="544" as="targetPoint" />
          </mxGeometry>
        </mxCell>
      </root>
    </mxGraphModel>
  </diagram>
</mxfile>
